<mxfile host="app.diagrams.net" modified="2021-06-23T12:05:00.669Z" agent="5.0 (Windows)" etag="dfbfIx7x5mRptV623FaF" version="14.8.0" type="github">
  <diagram id="BbwCJ61hzbDqRbP00Ixq" name="Page-1">
    <mxGraphModel dx="1865" dy="570" grid="1" gridSize="10" guides="1" tooltips="1" connect="1" arrows="1" fold="1" page="1" pageScale="1" pageWidth="827" pageHeight="1169" math="0" shadow="0">
      <root>
        <mxCell id="0" />
        <mxCell id="1" parent="0" />
        <mxCell id="Tv3eXQoku1zJpk6C7R8K-1" value="" style="ellipse;shape=cloud;whiteSpace=wrap;html=1;" vertex="1" parent="1">
          <mxGeometry x="80" y="60" width="410" height="180" as="geometry" />
        </mxCell>
        <mxCell id="Tv3eXQoku1zJpk6C7R8K-3" value="icp-auto-rg" style="text;html=1;strokeColor=none;fillColor=none;align=center;verticalAlign=middle;whiteSpace=wrap;rounded=0;" vertex="1" parent="1">
          <mxGeometry x="142" y="40" width="110" height="20" as="geometry" />
        </mxCell>
        <mxCell id="Tv3eXQoku1zJpk6C7R8K-5" value="" style="ellipse;shape=cloud;whiteSpace=wrap;html=1;" vertex="1" parent="1">
          <mxGeometry x="-40" y="190" width="710" height="570" as="geometry" />
        </mxCell>
        <mxCell id="Tv3eXQoku1zJpk6C7R8K-7" value="" style="rounded=0;whiteSpace=wrap;html=1;" vertex="1" parent="1">
          <mxGeometry x="170" y="119" width="140" height="60" as="geometry" />
        </mxCell>
        <mxCell id="Tv3eXQoku1zJpk6C7R8K-8" value="Bastion Node" style="text;html=1;strokeColor=none;fillColor=none;align=center;verticalAlign=middle;whiteSpace=wrap;rounded=0;" vertex="1" parent="1">
          <mxGeometry x="192" y="139" width="96" height="20" as="geometry" />
        </mxCell>
        <mxCell id="Tv3eXQoku1zJpk6C7R8K-17" value="" style="rounded=0;whiteSpace=wrap;html=1;" vertex="1" parent="1">
          <mxGeometry x="122" y="388" width="130" height="65" as="geometry" />
        </mxCell>
        <mxCell id="Tv3eXQoku1zJpk6C7R8K-18" value="Master Node-1" style="text;html=1;strokeColor=none;fillColor=none;align=center;verticalAlign=middle;whiteSpace=wrap;rounded=0;" vertex="1" parent="1">
          <mxGeometry x="139" y="408" width="93" height="20" as="geometry" />
        </mxCell>
        <mxCell id="Tv3eXQoku1zJpk6C7R8K-20" value="" style="rounded=0;whiteSpace=wrap;html=1;" vertex="1" parent="1">
          <mxGeometry x="120" y="552" width="130" height="65" as="geometry" />
        </mxCell>
        <mxCell id="Tv3eXQoku1zJpk6C7R8K-25" value="" style="rounded=0;whiteSpace=wrap;html=1;" vertex="1" parent="1">
          <mxGeometry x="120" y="470" width="130" height="65" as="geometry" />
        </mxCell>
        <mxCell id="Tv3eXQoku1zJpk6C7R8K-26" value="Master Node-2" style="text;html=1;strokeColor=none;fillColor=none;align=center;verticalAlign=middle;whiteSpace=wrap;rounded=0;" vertex="1" parent="1">
          <mxGeometry x="138.5" y="492.5" width="93" height="20" as="geometry" />
        </mxCell>
        <mxCell id="Tv3eXQoku1zJpk6C7R8K-27" value="Master Node-3" style="text;html=1;strokeColor=none;fillColor=none;align=center;verticalAlign=middle;whiteSpace=wrap;rounded=0;" vertex="1" parent="1">
          <mxGeometry x="138.5" y="575" width="93" height="20" as="geometry" />
        </mxCell>
        <mxCell id="Tv3eXQoku1zJpk6C7R8K-29" value="" style="rounded=0;whiteSpace=wrap;html=1;" vertex="1" parent="1">
          <mxGeometry x="352" y="388" width="130" height="65" as="geometry" />
        </mxCell>
        <mxCell id="Tv3eXQoku1zJpk6C7R8K-30" value="Worker Node-1" style="text;html=1;strokeColor=none;fillColor=none;align=center;verticalAlign=middle;whiteSpace=wrap;rounded=0;" vertex="1" parent="1">
          <mxGeometry x="369" y="408" width="93" height="20" as="geometry" />
        </mxCell>
        <mxCell id="Tv3eXQoku1zJpk6C7R8K-31" value="" style="rounded=0;whiteSpace=wrap;html=1;" vertex="1" parent="1">
          <mxGeometry x="350" y="552" width="130" height="65" as="geometry" />
        </mxCell>
        <mxCell id="Tv3eXQoku1zJpk6C7R8K-32" value="" style="rounded=0;whiteSpace=wrap;html=1;" vertex="1" parent="1">
          <mxGeometry x="350" y="470" width="130" height="65" as="geometry" />
        </mxCell>
        <mxCell id="Tv3eXQoku1zJpk6C7R8K-33" value="Worker Node-2" style="text;html=1;strokeColor=none;fillColor=none;align=center;verticalAlign=middle;whiteSpace=wrap;rounded=0;" vertex="1" parent="1">
          <mxGeometry x="368.5" y="492.5" width="93" height="20" as="geometry" />
        </mxCell>
        <mxCell id="Tv3eXQoku1zJpk6C7R8K-34" value="Worker Node-3" style="text;html=1;strokeColor=none;fillColor=none;align=center;verticalAlign=middle;whiteSpace=wrap;rounded=0;" vertex="1" parent="1">
          <mxGeometry x="368.5" y="575" width="93" height="20" as="geometry" />
        </mxCell>
        <mxCell id="Tv3eXQoku1zJpk6C7R8K-35" value="cp-cluster-jfxcg-rg" style="text;html=1;strokeColor=none;fillColor=none;align=center;verticalAlign=middle;whiteSpace=wrap;rounded=0;" vertex="1" parent="1">
          <mxGeometry x="20" y="290" width="110" height="20" as="geometry" />
        </mxCell>
        <mxCell id="Tv3eXQoku1zJpk6C7R8K-36" value="&lt;h1&gt;&lt;font style=&quot;font-size: 15px&quot;&gt;.opneshift/&lt;/font&gt;&lt;/h1&gt;&lt;p&gt;/openshift-install&lt;/p&gt;&lt;p&gt;&amp;nbsp;&amp;nbsp;&amp;nbsp;&amp;nbsp;&amp;nbsp;&amp;nbsp;&amp;nbsp;&amp;nbsp;&amp;nbsp;&amp;nbsp;&amp;nbsp;&amp;nbsp;&amp;nbsp; &lt;span&gt;&lt;/span&gt;&lt;span&gt;&lt;/span&gt;&amp;gt;&amp;gt;Save all Configurations&lt;br&gt;&lt;/p&gt;&lt;p&gt;/openshiftfourx/&lt;/p&gt;&lt;p&gt;&amp;nbsp;&amp;nbsp;&amp;nbsp;&amp;nbsp;&amp;nbsp;&amp;nbsp;&amp;nbsp;&amp;nbsp;&amp;nbsp;&amp;nbsp;&amp;nbsp;&amp;nbsp;&amp;nbsp;&amp;nbsp; &amp;gt;&amp;gt;Terrafor script to create cluster&lt;br&gt;&lt;/p&gt;" style="text;html=1;strokeColor=none;fillColor=none;spacing=5;spacingTop=-20;whiteSpace=wrap;overflow=hidden;rounded=0;" vertex="1" parent="1">
          <mxGeometry x="470" y="70" width="270" height="160" as="geometry" />
        </mxCell>
      </root>
    </mxGraphModel>
  </diagram>
</mxfile>
